CD_DA

CD_TEXT {
  LANGUAGE_MAP {
    0: 9
  }
  LANGUAGE 0 {
    TITLE "Americana"
    PERFORMER "THE OFFSPRING"
    DISC_ID "CK69661"
    UPC_EAN ""
    SIZE_INFO { 1,  1, 13,  0, 19, 17,  0,  0,  0,  0,  1,  0,
                0,  0,  0,  0,  0,  0, 18,  3, 57,  0,  0,  0,
                0,  0,  0,  0,  9,  0,  0,  0,  0,  0,  0,  0}
  }
}

// Track 1
TRACK AUDIO
NO COPY
NO PRE_EMPHASIS
TWO_CHANNEL_AUDIO
ISRC "USSM19804374"
CD_TEXT {
  LANGUAGE 0 {
    TITLE "Welcome"
    PERFORMER "THE OFFSPRING"
    DISC_ID ""
    ISRC "US-SM1-98-04374"
  }
}
FILE "Americana.bin" 0 00:09:52


// Track 2
TRACK AUDIO
NO COPY
NO PRE_EMPHASIS
TWO_CHANNEL_AUDIO
ISRC "USSM19804361"
CD_TEXT {
  LANGUAGE 0 {
    TITLE "Have You Ever"
    PERFORMER "THE OFFSPRING"
    DISC_ID ""
    ISRC "US-SM1-98-04361"
  }
}
FILE "Americana.bin" 00:09:52 03:56:55


// Track 3
TRACK AUDIO
NO COPY
NO PRE_EMPHASIS
TWO_CHANNEL_AUDIO
ISRC "USSM19804361"
CD_TEXT {
  LANGUAGE 0 {
    TITLE "Staring At The Sun"
    PERFORMER "THE OFFSPRING"
    DISC_ID ""
    ISRC "US-SM1-98-04362"
  }
}
FILE "Americana.bin" 04:06:32 02:13:25


// Track 4
TRACK AUDIO
NO COPY
NO PRE_EMPHASIS
TWO_CHANNEL_AUDIO
ISRC "USSM19804199"
CD_TEXT {
  LANGUAGE 0 {
    TITLE "Pretty Fly (For A White Guy)"
    PERFORMER "THE OFFSPRING"
    DISC_ID ""
    ISRC "US-SM1-98-04199"
  }
}
FILE "Americana.bin" 06:19:57 03:08:55
START 00:00:18


// Track 5
TRACK AUDIO
NO COPY
NO PRE_EMPHASIS
TWO_CHANNEL_AUDIO
ISRC "USSM19804199"
CD_TEXT {
  LANGUAGE 0 {
    TITLE "The Kids Aren't Alright"
    PERFORMER "THE OFFSPRING"
    ISRC "US-SM1-98-04363"
  }
}
FILE "Americana.bin" 09:28:37 03:00:14
START 00:00:13


// Track 6
TRACK AUDIO
NO COPY
NO PRE_EMPHASIS
TWO_CHANNEL_AUDIO
ISRC "USSM19804363"
CD_TEXT {
  LANGUAGE 0 {
    TITLE "Feelings"
    PERFORMER "THE OFFSPRING"
    ISRC "US-SM1-98-04364"
  }
}
FILE "Americana.bin" 12:28:51 02:51:72
START 00:00:11


// Track 7
TRACK AUDIO
NO COPY
NO PRE_EMPHASIS
TWO_CHANNEL_AUDIO
ISRC "USSM19804365"
CD_TEXT {
  LANGUAGE 0 {
    TITLE "She's Got Issues"
    PERFORMER "THE OFFSPRING"
    ISRC "US-SM1-98-04365"
  }
}
FILE "Americana.bin" 15:20:48 03:48:67
START 00:00:14


// Track 8
TRACK AUDIO
NO COPY
NO PRE_EMPHASIS
TWO_CHANNEL_AUDIO
ISRC "USSM19804365"
CD_TEXT {
  LANGUAGE 0 {
    TITLE "Walla Walla"
    PERFORMER "THE OFFSPRING"
    ISRC "US-SM1-98-04366"
  }
}
FILE "Americana.bin" 19:09:40 02:56:56


// Track 9
TRACK AUDIO
NO COPY
NO PRE_EMPHASIS
TWO_CHANNEL_AUDIO
ISRC "USSM19804367"
CD_TEXT {
  LANGUAGE 0 {
    TITLE "The End Of The Line"
    PERFORMER "THE OFFSPRING"
    ISRC "US-SM1-98-04367"
  }
}
FILE "Americana.bin" 22:06:21 03:02:51
START 00:00:19


// Track 10
TRACK AUDIO
NO COPY
NO PRE_EMPHASIS
TWO_CHANNEL_AUDIO
ISRC "USSM19804367"
CD_TEXT {
  LANGUAGE 0 {
    TITLE "No Brakes"
    PERFORMER "THE OFFSPRING"
    ISRC "US-SM1-98-04368"
  }
}
FILE "Americana.bin" 25:08:72 02:03:69


// Track 11
TRACK AUDIO
NO COPY
NO PRE_EMPHASIS
TWO_CHANNEL_AUDIO
ISRC "USSM19804368"
CD_TEXT {
  LANGUAGE 0 {
    TITLE "Why Don't You Get A Job?"
    PERFORMER "THE OFFSPRING"
    ISRC "US-SM1-98-04369"
  }
}
FILE "Americana.bin" 27:12:66 02:52:28
START 00:00:09


// Track 12
TRACK AUDIO
NO COPY
NO PRE_EMPHASIS
TWO_CHANNEL_AUDIO
ISRC "USSM19804369"
CD_TEXT {
  LANGUAGE 0 {
    TITLE "Americana"
    PERFORMER "THE OFFSPRING"
    ISRC "US-SM1-98-04370"
  }
}
FILE "Americana.bin" 30:05:19 03:15:19
START 00:00:16


// Track 13
TRACK AUDIO
NO COPY
NO PRE_EMPHASIS
TWO_CHANNEL_AUDIO
ISRC "USSM19804371"
CD_TEXT {
  LANGUAGE 0 {
    TITLE "Pay The Man"
    PERFORMER "THE OFFSPRING"
    ISRC "US-SM1-98-04371"
  }
}
FILE "Americana.bin" 33:20:38 10:19:30
START 00:00:09

